<?xml version="1.0" standalone="no"?>
<!DOCTYPE svg PUBLIC "-//W3C//DTD SVG 20010904//EN"
 "http://www.w3.org/TR/2001/REC-SVG-20010904/DTD/svg10.dtd">
<svg version="1.0" xmlns="http://www.w3.org/2000/svg"
 width="620.000000pt" height="614.000000pt" viewBox="0 0 620.000000 614.000000"
 preserveAspectRatio="xMidYMid meet">

<g transform="translate(0.000000,614.000000) scale(0.100000,-0.100000)"
fill="#000000" stroke="none">
<path d="M4659 3461 c-59 -60 -26 -151 55 -151 65 0 106 56 86 116 -23 68 -91
85 -141 35z"/>
<path d="M730 3445 c-57 -18 -115 -66 -140 -116 -26 -49 -26 -130 -1 -185 31
-68 78 -95 249 -144 82 -24 112 -47 112 -87 -1 -101 -181 -115 -227 -19 l-17
36 -78 0 c-87 0 -87 -1 -68 -71 25 -89 134 -166 252 -177 183 -16 321 105 306
268 -10 99 -72 155 -218 195 -121 33 -167 68 -155 118 21 81 194 69 221 -15 4
-15 16 -18 80 -18 70 0 74 1 74 23 0 34 -37 98 -77 134 -74 67 -206 91 -313
58z"/>
<path d="M1730 3075 l0 -375 80 0 80 0 0 176 0 176 29 29 c23 22 39 29 69 29
94 0 103 -22 103 -241 l-1 -169 80 0 80 0 0 183 c0 134 -4 197 -15 234 -37
125 -190 173 -301 95 l-44 -32 0 53 c0 28 -3 89 -7 135 l-6 82 -73 0 -74 0 0
-375z"/>
<path d="M3530 3075 l0 -375 75 0 75 0 0 375 0 375 -75 0 -75 0 0 -375z"/>
<path d="M3810 3075 l0 -375 80 0 80 0 0 375 0 375 -80 0 -80 0 0 -375z"/>
<path d="M4100 3075 l0 -375 85 0 85 0 0 150 0 150 130 0 130 0 0 70 0 70
-130 0 -130 0 0 79 0 79 45 7 c25 3 76 6 113 5 37 -1 82 -1 100 -1 l32 1 0 70
0 70 -230 0 -230 0 0 -375z"/>
<path d="M1339 3234 c-63 -19 -131 -81 -159 -146 -19 -44 -22 -65 -18 -139 4
-75 8 -94 34 -135 104 -169 326 -178 436 -18 14 21 29 49 33 62 6 21 4 22 -58
22 -55 0 -67 -3 -87 -25 -35 -38 -81 -49 -124 -31 -35 15 -71 60 -82 104 -12
45 6 110 40 147 29 30 39 35 81 35 41 0 52 -5 80 -34 30 -32 36 -34 94 -34
l63 0 -6 29 c-8 43 -53 104 -95 132 -71 47 -148 57 -232 31z"/>
<path d="M2570 3239 c-13 -6 -39 -21 -57 -35 l-33 -25 0 30 0 31 -75 0 -75 0
0 -270 0 -270 80 0 80 0 0 165 c0 175 8 212 49 235 29 15 93 12 118 -5 34 -24
43 -76 43 -242 l0 -153 75 0 75 0 0 183 c0 205 -11 265 -57 309 -54 52 -156
73 -223 47z"/>
<path d="M3074 3232 c-59 -28 -106 -73 -134 -129 -20 -39 -25 -63 -25 -133 0
-98 20 -153 76 -209 118 -118 346 -101 433 32 43 67 38 77 -42 77 -61 0 -70
-3 -94 -29 -15 -15 -41 -31 -59 -35 -69 -13 -149 33 -164 97 l-7 27 201 0 201
0 0 45 c0 54 -33 145 -67 185 -48 57 -107 83 -197 87 -64 3 -89 0 -122 -15z
m169 -113 c13 -6 31 -23 40 -39 32 -53 28 -55 -98 -52 -108 3 -115 4 -115 24
0 11 14 33 31 49 24 23 40 29 75 29 23 0 54 -5 67 -11z"/>
<path d="M4860 3240 c0 -3 40 -66 89 -138 l90 -133 -85 -116 c-123 -168 -121
-153 -16 -153 l89 0 53 81 53 80 23 -28 c13 -15 30 -41 39 -58 l17 -30 -137
-230 c-75 -126 -146 -246 -158 -265 -13 -22 32 16 119 101 76 74 194 189 262
255 l123 119 -91 127 -90 127 90 126 c49 70 90 128 90 131 0 2 -40 4 -90 4
l-89 0 -52 -76 -51 -76 -46 75 -47 75 -93 4 c-50 2 -92 1 -92 -2z"/>
<path d="M4640 2970 l0 -270 75 0 75 0 0 270 0 270 -75 0 -75 0 0 -270z"/>
</g>
</svg>
